# AST/ASF file generated using VICON BodyLanguage
# -----------------------------------------------
:version 1.10
:name VICON
:units
  mass 1.0
  length 0.45
  angle deg
:documentation
   .ast/.asf automatically generated from VICON data using
   VICON BodyBuilder and BodyLanguage model FoxedUp or BRILLIANT.MOD
:root
   order TX TY TZ RX RY RZ
   axis XYZ
   position 0 0 0  
   orientation 0 0 0 
:bonedata
  begin
     id 1 
     name lhipjoint
     direction 0.612567 -0.751349 0.245431 
     length 2.42285 
     axis 0 0 0  XYZ
  end
  begin
     id 2 
     name lfemur
     direction 0.34202 -0.939693 0  
     length 7.11304  
     axis 0 0 20  XYZ
    dof rx ry rz
    limits (-160.0 20.0)
           (-70.0 70.0)
           (-60.0 70.0)
  end
  begin
     id 3 
     name ltibia
     direction 0.34202 -0.939693 0   
     length 7.84529   
     axis 0 0 20   XYZ
    dof rx
    limits (-10.0 170.0)
  end
  begin
     id 4 
     name lfoot
     direction 0.0779239 -0.214094 0.9737   
     length 1.97176   
     axis -90 7.62852e-016 20   XYZ
    dof rx rz
    limits (-45.0 90.0)
           (-70.0 20.0)
  end
  begin
     id 5 
     name ltoes
     direction 1.53565e-011 -4.21709e-011 1   
     length 0.993197   
     axis -90 7.62852e-016 20   XYZ
    dof rx
    limits (-90.0 20.0)
  end
  begin
     id 6 
     name rhipjoint
     direction -0.665722 -0.709315 0.231701   
     length 2.56642  
     axis 0 0 0  XYZ 
  end
  begin
     id 7 
     name rfemur
     direction -0.34202 -0.939693 0   
     length 7.32108   
     axis 0 0 -20   XYZ
    dof rx ry rz
    limits (-160.0 20.0)
           (-70.0 70.0)
           (-70.0 60.0)
  end
  begin
     id 8 
     name rtibia
     direction -0.34202 -0.939693 0   
     length 7.81254   
     axis 0 0 -20   XYZ
    dof rx
    limits (-10.0 170.0)
 end
 begin
     id 9 
     name rfoot
     direction -0.0832806 -0.228812 0.969902   
     length 2.08278  
     axis -90 -7.62852e-016 -20   XYZ
    dof rx rz
    limits (-45.0 90.0)
           (-20.0 70.0)
  end
  begin
     id 10 
     name rtoes
     direction -1.53589e-011 -4.22086e-011 1   
     length 1.04609   
     axis -90 -7.62852e-016 -20   XYZ
    dof rx
    limits (-90.0 20.0)
  end
  begin
     id 11 
     name lowerback
     direction -0.00506013 0.988403 -0.151766   
     length 2.01978   
     axis 0 0 0   XYZ
    dof rx ry rz
    limits (-20.0 45.0)
           (-30.0 30.0)
           (-30.0 30.0)
  end
  begin
     id 12 
     name upperback
     direction -0.00836389 0.99968 0.0238859   
     length 2.01276   
     axis 0 0 0   XYZ
    dof rx ry rz
    limits (-20.0 45.0)
           (-30.0 30.0)
           (-30.0 30.0)
  end
  begin
     id 13 
     name thorax
     direction -0.00684136 0.995386 0.0957043   
     length 2.07303   
     axis 0 0 0   XYZ
    dof rx ry rz
    limits (-20.0 45.0)
           (-30.0 30.0)
           (-30.0 30.0)
  end
  begin
     id 14 
     name lowerneck
     direction -0.0161045 0.999661 0.0204485   
     length 1.91243   
     axis 0 0 0   XYZ
    dof rx ry rz
    limits (-20.0 45.0)
           (-30.0 30.0)
           (-30.0 30.0)
  end
  begin
     id 15 
     name upperneck
     direction 0.0553583 0.990946 -0.122319   
     length 1.91574   
     axis 0 0 0   XYZ
    dof rx ry rz
    limits (-20.0 45.0)
           (-30.0 30.0)
           (-30.0 30.0)
  end
  begin
     id 16
     name head
     direction 0.0180273 0.998839 -0.0446756  
     length 1.92693  
     axis 0 0 0   XYZ
    dof rx ry rz
    limits (-20.0 45.0)
           (-30.0 30.0)
           (-30.0 30.0)
  end
  begin
     id 17 
     name lclavicle
     direction 0.945646 0.319323 -0.0615358  
     length 4.0076  
     axis 0 0 0   XYZ
    dof ry rz
    limits (-20.0 10.0)
           (0.0 20.0)
  end
  begin
     id 18 
     name lhumerus
     direction 1 -4.48967e-011 -2.79996e-027   
     length 5.64147   
     axis 180 -30 -90   XYZ
    dof rx ry rz
    limits (-60.0 90.0)
           (-90.0 90.0)
           (-90.0 90.0)
  end
  begin
     id 19
     name lradius
     direction 1 -4.48976e-011 -9.5122e-027   
     length 2.86444   
     axis 180 -30 -90   XYZ
    dof rx
    limits (-10.0 170.0)
  end
  begin
     id 20
     name lwrist
     direction 1 -4.48983e-011 -1.24047e-026   
     length 1.43222   
     axis 9.05591e-015 90 90   XYZ
    dof ry
    limits (-180.0 0.0)
 end
  begin
     id 21 
     name lhand
     direction 1 -4.4892e-011 -2.48094e-026   
     length 0.722123   
     axis 1.58305e-014 90 90   XYZ
    dof rx rz
    limits (-90.0 90.0)
           (-45.0 45.0)
  end
  begin
     id 22 
     name lfingers
     direction 1 -4.48895e-011 -4.96187e-026   
     length 0.582194   
     axis 3.1661e-014 90 90   XYZ
    dof rx
    limits (0.0 90.0)
  end
  begin
     id 23
     name lthumb
     direction 0.707107 -6.34961e-011 0.707107   
     length 0.835918   
     axis -90 45 2.85299e-015   XYZ
    dof rx rz
    limits (-45.0 45.0)
           (-45.0 45.0)
  end
  begin
     id 24 
     name rclavicle
     direction -0.932635 0.324218 -0.15835   
     length 3.65819  
     axis 0 0 0   XYZ 
    dof ry rz
    limits (-10.0 20.0)
           (-20.0 0.0)
  end
  begin
     id 25 
     name rhumerus
     direction -1 -4.48965e-011 -4.02296e-027  
     length 5.44729   
     axis 180 30 90   XYZ
    dof rx ry rz
    limits (-90.0 60.0)
           (-90.0 90.0)
           (-90.0 90.0)
  end
  begin
     id 26 
     name rradius
     direction -1 -4.48957e-011 -8.81087e-027   
     length 3.08821   
     axis 180 30 90   XYZ
    dof rx
    limits (-10.0 170.0)
  end
  begin
     id 27 
     name rwrist
     direction -1 -4.49015e-011 -1.24047e-026   
     length 1.5441   
     axis 9.05591e-015 -90 -90   XYZ
    dof ry
    limits (-180.0 0.0)
  end
  begin
     id 28
     name rhand
     direction -1 -4.4891e-011 -2.48094e-026   
     length 0.821049   
     axis 1.58305e-014 -90 -90   XYZ
    dof rx rz
    limits (-90.0 90.0)
           (-45.0 45.0)
  end
  begin
     id 29
     name rfingers
     direction -1 -4.48985e-011 -4.96187e-026   
     length 0.661951   
     axis 3.1661e-014 -90 -90   XYZ
    dof rx
    limits (0.0 90.0)
  end
  begin
     id 30
     name rthumb
     direction -0.707107 -6.34906e-011 0.707107   
     length 0.950433   
     axis -90 -45 -2.85299e-015   XYZ
    dof rx rz
    limits (-45.0 45.0)
           (-45.0 45.0)
  end
:hierarchy
  begin
    root lhipjoint rhipjoint lowerback
    lhipjoint lfemur
    lfemur ltibia
    ltibia lfoot
    lfoot ltoes
    rhipjoint rfemur
    rfemur rtibia
    rtibia rfoot
    rfoot rtoes
    lowerback upperback
    upperback thorax
    thorax lowerneck lclavicle rclavicle
    lowerneck upperneck
    upperneck head
    lclavicle lhumerus
    lhumerus lradius
    lradius lwrist
    lwrist lhand lthumb
    lhand lfingers
    rclavicle rhumerus
    rhumerus rradius
    rradius rwrist
    rwrist rhand rthumb
    rhand rfingers
  end

#!OML:ASF F:\VICON\USERDATA\INSTALL\rory3\rory3.ASF
:FULLY-SPECIFIED
:DEGREES
2050
root 3.29357 17.5927 0.291688 7.64479 107.571 7.57249
lowerback 5.27539 1.21231 3.05129
upperback -3.38484 1.81249 -1.40446
thorax -6.35562 0.737208 -3.37567
lowerneck -1.01188 0.0272603 -2.87274
upperneck -6.2301 0.3117 3.8369
head -1.79325 0.189116 1.69876
rclavicle -8.10544e-014 -6.36111e-015
rhumerus -38.7255 -17.8103 -68.9779
rradius 20.0816
rwrist 19.2823
rhand -15.138 11.5131
rfingers 7.12502
rthumb 11.0317 -18.177
lclavicle -8.10544e-014 -6.36111e-015
lhumerus -39.6604 -31.7887 90.7166
lradius 55.8091
lwrist 42.7523
lhand -10.264 16.2145
lfingers 7.12502
lthumb 15.7294 45.5953
rfemur 5.3659 -4.52086 22.1222
rtibia 10.1945
rfoot -22.4143 -10.6244
rtoes -0.947071
lfemur -7.90836 -4.13837 -13.6468
ltibia 20.9243
lfoot -11.4078 -11.6137
ltoes 0.186865
2051
root 3.30099 17.5871 0.288438 7.64443 107.897 7.68319
lowerback 5.3304 1.29341 2.8993
upperback -3.37989 1.90161 -1.56903
thorax -6.37397 0.784031 -3.4737
lowerneck -1.07601 -0.12247 -3.0862
upperneck -6.10697 0.117896 4.04945
head -1.7377 0.0939678 1.80663
rclavicle -5.96354e-016 1.59028e-015
rhumerus -39.2175 -19.1512 -67.8439
rradius 18.7438
rwrist 21.6564
rhand -14.7678 11.1952
rfingers 7.12502
rthumb 11.3887 -18.4755
lclavicle -5.96354e-016 1.59028e-015
lhumerus -38.6375 -33.0339 90.0595
lradius 58.0044
lwrist 43.585
lhand -10.381 16.3571
lfingers 7.12502
lthumb 15.6167 45.7467
rfemur 5.64777 -4.75477 22.1999
rtibia 9.9981
rfoot -22.4281 -10.7014
rtoes -0.939755
lfemur -7.92924 -4.39556 -13.5754
ltibia 21.1006
lfoot -11.4475 -11.7598
ltoes 0.6504
2052
root 3.30923 17.5831 0.283031 7.33773 108.207 7.44391
lowerback 5.34281 1.37102 2.64521
upperback -3.37413 1.97588 -1.76054
thorax -6.37019 0.828352 -3.53958
lowerneck -1.0238 -0.276073 -3.31973
upperneck -6.12655 -0.0787814 4.25972
head -1.74777 -0.00286963 1.91973
rclavicle 4.48259e-014 -7.15625e-015
rhumerus -39.8489 -20.8426 -66.3803
rradius 17.3614
rwrist 24.5152
rhand -14.6277 11.2522
rfingers 7.12502
rthumb 11.5238 -18.411
lclavicle 4.48259e-014 -7.15625e-015
lhumerus -37.5225 -34.1904 89.3129
lradius 60.2524
lwrist 44.595
lhand -10.7277 16.34
lfingers 7.12502
lthumb 15.2828 45.7554
rfemur 5.90825 -4.98469 22.1547
rtibia 9.80779
rfoot -22.4472 -10.7665
rtoes -1.01804
lfemur -7.94181 -4.64892 -13.6368
ltibia 21.2317
lfoot -11.5012 -11.8959
ltoes 0.728553
2053
root 3.3164 17.5819 0.280783 7.42517 108.435 7.60584
lowerback 5.38746 1.49657 2.44757
upperback -3.36895 2.1214 -1.91702
thorax -6.37966 0.905783 -3.60909
lowerneck -1.1036 -0.458322 -3.52605
upperneck -6.00895 -0.315884 4.4593
head -1.68746 -0.119124 2.02283
rclavicle 5.01434e-014 1.74931e-014
rhumerus -40.728 -23.1252 -64.409
rradius 15.9479
rwrist 28.0047
rhand -14.5281 11.4627
rfingers 7.12502
rthumb 11.6198 -18.1951
lclavicle 5.01434e-014 1.74931e-014
lhumerus -36.2805 -35.3431 88.4675
lradius 62.5882
lwrist 45.5664
lhand -10.8273 15.9659
lfingers 7.12502
lthumb 15.1868 45.3885
rfemur 6.10947 -5.11901 22.2554
rtibia 9.64614
rfoot -22.5002 -10.8003
rtoes -0.583142
lfemur -7.93356 -4.88936 -13.5559
ltibia 21.3135
lfoot -11.5267 -11.946
ltoes 1.12734
2054
root 3.32281 17.5804 0.279331 7.85872 108.645 8.13604
lowerback 5.47484 1.64488 2.36538
upperback -3.37724 2.30825 -2.05842
thorax -6.42155 0.99792 -3.73456
lowerneck -1.35127 -0.667076 -3.78751
upperneck -5.67833 -0.587354 4.75954
head -1.52698 -0.25148 2.16548
rclavicle 1.78409e-014 -1.11319e-014
rhumerus -42.0099 -26.0324 -61.7494
rradius 14.4758
rwrist 32.3115
rhand -14.5184 11.6677
rfingers 7.12502
rthumb 11.6293 -17.9896
lclavicle 1.78409e-014 -1.11319e-014
lhumerus -34.8312 -36.47 87.541
lradius 64.8573
lwrist 46.3857
lhand -10.5527 15.4944
lfingers 7.12502
lthumb 15.4514 44.8968
rfemur 6.29549 -5.22274 22.4843
rtibia 9.48186
rfoot -22.5144 -10.9483
rtoes -0.81109
lfemur -7.91208 -5.01608 -13.3438
ltibia 21.3647
lfoot -11.5656 -12.0499
ltoes 1.13591
2055
root 3.33267 17.5783 0.275842 7.95151 108.851 8.30631
lowerback 5.50285 1.79587 2.17078
upperback -3.37264 2.48718 -2.23404
thorax -6.41871 1.09198 -3.82921
lowerneck -1.49826 -0.880505 -4.12668
upperneck -5.48602 -0.860026 5.10708
head -1.42708 -0.383822 2.34042
rclavicle 2.86747e-014 -1.27222e-014
rhumerus -43.8303 -29.3814 -58.3895
rradius 13.1659
rwrist 37.3062
rhand -14.6498 11.7854
rfingers 7.12502
rthumb 11.5025 -17.8791
lclavicle 2.86747e-014 -1.27222e-014
lhumerus -33.2637 -37.5874 86.554
lradius 67.1187
lwrist 47.1487
lhand -10.3939 15.2711
lfingers 7.12502
lthumb 15.6043 44.6617
rfemur 6.52846 -5.33255 22.5669
rtibia 9.26894
rfoot -22.549 -11.0678
rtoes -0.80951
lfemur -7.87085 -5.11719 -13.2634
ltibia 21.4155
lfoot -11.6034 -12.1877
ltoes 1.28372
2056
root 3.34187 17.577 0.271141 7.85699 109.048 8.20223
lowerback 5.43637 1.93188 1.88509
upperback -3.39078 2.63743 -2.44536
thorax -6.39026 1.17638 -3.90358
lowerneck -1.41684 -1.04994 -4.42975
upperneck -5.51052 -1.07285 5.45057
head -1.4379 -0.489238 2.51283
rclavicle -5.46658e-015 7.95139e-015
rhumerus -46.3769 -33.0961 -54.1904
rradius 12.0544
rwrist 43.0396
rhand -14.8296 11.8932
rfingers 7.12502
rthumb 11.3291 -17.7808
lclavicle -5.46658e-015 7.95139e-015
lhumerus -31.6974 -38.5889 85.4872
lradius 69.5538
lwrist 47.7905
lhand -10.6265 15.3108
lfingers 7.12502
lthumb 15.3802 44.7187
rfemur 6.67789 -5.44244 22.5557
rtibia 9.07093
rfoot -22.6223 -11.1567
rtoes -0.619759
lfemur -7.90025 -5.22345 -13.2756
ltibia 21.4578
lfoot -11.5896 -12.3296
ltoes 1.7005
2057
root 3.34744 17.5773 0.268519 8.09367 109.213 8.34594
lowerback 5.34532 2.11109 1.71251
upperback -3.45616 2.85456 -2.69928
thorax -6.38593 1.28769 -4.09372
lowerneck -1.25996 -1.2759 -4.5749
upperneck -5.59275 -1.3628 5.75585
head -1.47513 -0.636472 2.64638
rclavicle 1.5704e-014 2.54444e-014
rhumerus -49.8007 -36.9479 -49.1241
rradius 11.1452
rwrist 49.1902
rhand -15.0081 11.9445
rfingers 7.12502
rthumb 11.157 -17.7389
lclavicle 1.5704e-014 2.54444e-014
lhumerus -30.0038 -39.5405 84.2731
lradius 72.1685
lwrist 48.2269
lhand -10.814 15.7132
lfingers 7.12502
lthumb 15.1996 45.1349
rfemur 6.67392 -5.50707 22.654
rtibia 8.92245
rfoot -22.6812 -11.2844
rtoes -0.615983
lfemur -8.04218 -5.30651 -13.19
ltibia 21.4767
lfoot -11.5521 -12.4055
ltoes 1.8368
2058
root 3.35401 17.5764 0.266235 8.19527 109.374 8.39875
lowerback 5.29885 2.28778 1.48917
upperback -3.47018 3.06567 -2.9319
thorax -6.35621 1.39964 -4.23224
lowerneck -1.2707 -1.52695 -4.90435
upperneck -5.5886 -1.67865 6.17278
head -1.45082 -0.791829 2.84967
rclavicle 5.03919e-014 6.36111e-015
rhumerus -53.8529 -40.4941 -43.394
rradius 10.3835
rwrist 55.3105
rhand -15.367 12.7331
rfingers 7.12502
rthumb 10.8108 -16.9687
lclavicle 5.03919e-014 6.36111e-015
lhumerus -28.0022 -40.3123 82.9318
lradius 74.652
lwrist 48.4504
lhand -10.5503 16.0133
lfingers 7.12502
lthumb 15.4537 45.4155
rfemur 6.70487 -5.57405 22.724
rtibia 8.82143
rfoot -22.7334 -11.4261
rtoes -0.734601
lfemur -8.11367 -5.33415 -13.1345
ltibia 21.4733
lfoot -11.5089 -12.5296
ltoes 1.8803
2059
root 3.36337 17.5743 0.266047 8.19159 109.603 8.41726
lowerback 5.29958 2.39355 1.21755
upperback -3.43782 3.17936 -3.13883
thorax -6.31619 1.46654 -4.30739
lowerneck -1.40304 -1.75105 -5.34825
upperneck -5.49187 -1.95584 6.64462
head -1.3738 -0.924417 3.0913
rclavicle 1.02374e-014 -2.06736e-014
rhumerus -54.6702 -40.6517 -42.9024
rradius 9.80761
rwrist 56.1599
rhand -15.7332 12.7232
rfingers 7.12502
rthumb 10.4576 -16.9967
lclavicle 1.02374e-014 -2.06736e-014
lhumerus -25.7897 -40.83 81.4848
lradius 76.9072
lwrist 48.7717
lhand -10.1048 15.6198
lfingers 7.12502
lthumb 15.8827 44.9884
rfemur 6.85357 -5.71568 22.811
rtibia 8.68063
rfoot -22.7617 -11.6116
rtoes -1.1354
lfemur -8.12971 -5.30919 -13.058
ltibia 21.4915
lfoot -11.3889 -12.8611
ltoes 2.66246
2060
root 3.37229 17.5733 0.266191 8.02872 109.913 8.28376
lowerback 5.33058 2.46763 0.940322
upperback -3.41341 3.24972 -3.38748
thorax -6.30392 1.51136 -4.42149
lowerneck -1.39546 -2.00111 -5.65632
upperneck -5.50567 -2.27115 7.04996
head -1.35297 -1.07962 3.28972
rclavicle 9.44227e-015 -6.36111e-015
rhumerus -55.6267 -40.7833 -42.409
rradius 9.35252
rwrist 56.7591
rhand -15.8117 11.4693
rfingers 7.12502
rthumb 10.3818 -18.2544
lclavicle 9.44227e-015 -6.36111e-015
lhumerus -23.5606 -41.2719 80.0773
lradius 79.2231
lwrist 49.4791
lhand -10.1134 15.1496
lfingers 7.12502
lthumb 15.8745 44.5189
rfemur 7.01755 -5.9439 22.8394
rtibia 8.52519
rfoot -22.8172 -11.7576
rtoes -1.29052
lfemur -8.17299 -5.34997 -13.0312
ltibia 21.5366
lfoot -11.1686 -13.2361
ltoes 3.785
2061
root 3.3837 17.5731 0.266129 8.09545 110.247 8.37036
lowerback 5.3279 2.5506 0.740895
upperback -3.40404 3.33899 -3.64909
thorax -6.28191 1.56247 -4.59388
lowerneck -1.24592 -2.28684 -5.87593
upperneck -5.65395 -2.63428 7.43238
head -1.39593 -1.26208 3.46925
rclavicle 5.75482e-014 -3.02153e-014
rhumerus -56.7122 -40.9631 -41.9028
rradius 8.95025
rwrist 57.1207
rhand -15.881 10.119
rfingers 7.12502
rthumb 10.3149 -19.608
lclavicle 5.75482e-014 -3.02153e-014
lhumerus -21.2305 -41.7647 78.6034
lradius 81.6835
lwrist 50.4298
lhand -10.427 15.1419
lfingers 7.12502
lthumb 15.5724 44.535
rfemur 7.19108 -6.18569 22.9551
rtibia 8.33568
rfoot -22.8554 -11.9072
rtoes -1.40674
lfemur -8.26033 -5.46545 -12.9216
ltibia 21.6261
lfoot -11.072 -13.5312
ltoes 4.65688
2062
root 3.39075 17.5714 0.268376 8.3604 110.623 8.64334
lowerback 5.38581 2.62299 0.618145
upperback -3.40539 3.42023 -3.89336
thorax -6.30328 1.6055 -4.7952
lowerneck -1.2189 -2.56446 -6.19756
upperneck -5.67562 -2.98368 7.91358
head -1.37212 -1.4349 3.69972
rclavicle -1.309e-013 -3.97569e-014
rhumerus -57.8001 -41.1477 -41.3924
rradius 8.55206
rwrist 57.3902
rhand -16.0762 9.51929
rfingers 7.12502
rthumb 10.1266 -20.217
lclavicle -1.309e-013 -3.97569e-014
lhumerus -18.7668 -42.1495 77.0814
lradius 84.1863
lwrist 51.388
lhand -10.609 15.1702
lfingers 7.12502
lthumb 15.3971 44.5769
rfemur 7.30641 -6.46124 23.1624
rtibia 8.1937
rfoot -22.9413 -11.999
rtoes -1.37891
lfemur -8.40102 -5.58722 -12.7224
ltibia 21.7246
lfoot -10.9643 -13.8436
ltoes 5.20789
2063
root 3.39526 17.5681 0.269502 8.66113 111.022 9.01113
lowerback 5.52603 2.66912 0.565793
upperback -3.39141 3.47133 -4.10694
thorax -6.35576 1.63004 -5.00601
lowerneck -1.25272 -2.83626 -6.63047
upperneck -5.60526 -3.32789 8.43598
head -1.30223 -1.60267 3.965
rclavicle 7.15625e-015 -9.54166e-015
rhumerus -58.8747 -41.2334 -40.8842
rradius 8.21971
rwrist 57.5366
rhand -16.2334 9.13757
rfingers 7.12502
rthumb 9.97499 -20.6061
lclavicle 7.15625e-015 -9.54166e-015
lhumerus -16.2546 -42.3436 75.5912
lradius 86.8255
lwrist 52.4126
lhand -10.76 14.9763
lfingers 7.12502
lthumb 15.2517 44.3941
rfemur 7.4389 -6.75436 23.3931
rtibia 8.09376
rfoot -23.0107 -12.1576
rtoes -1.38162
lfemur -8.4918 -5.73611 -12.4939
ltibia 21.8238
lfoot -10.9241 -14.103
ltoes 5.36455
